<svg width="116" height="20" viewBox="0 0 116 20" fill="none" xmlns="http://www.w3.org/2000/svg">
<path fill-rule="evenodd" clip-rule="evenodd" d="M30.9983 0L21.1072 19.3362H11.8166L15.956 11.3224H15.7703C12.3553 15.7556 7.26 18.674 0 19.3362V11.4334C0 11.4334 4.6444 11.159 7.3747 8.28852H0V0.000152518H8.28837V6.81722L8.4744 6.81646L11.8614 0.000152518H18.1296V6.77399L18.3156 6.77369L21.8296 0H30.9983Z" fill="#070000"/>
<path d="M84.9358 17.2019H87.6052V1.87991H84.9358V17.2019Z" fill="#070000"/>
<path fill-rule="evenodd" clip-rule="evenodd" d="M70.2199 17.0455C70.7999 17.2866 71.3899 17.4073 71.9896 17.4073C72.9804 17.4073 73.867 17.1661 74.6492 16.6837C75.4314 16.2013 76.0377 15.5365 76.4679 14.689C76.8981 13.8351 77.1132 12.867 77.1132 11.7849C77.1132 10.7029 76.8916 9.73489 76.4484 8.88095C76.005 8.02702 75.3891 7.36538 74.6003 6.89603C73.8116 6.42018 72.9152 6.18551 71.9113 6.19202C71.2726 6.19202 70.6599 6.31588 70.0731 6.56359C69.4865 6.8113 68.9976 7.1633 68.6065 7.6196C68.5763 7.65434 68.5469 7.68943 68.5185 7.72487V1.88975H65.8393V17.202H68.4989L68.4936 15.7715C68.5623 15.8559 68.6359 15.9383 68.714 16.0188C69.1377 16.4556 69.6397 16.7978 70.2199 17.0455ZM72.9576 14.5717C72.5209 14.839 72.0222 14.9726 71.4616 14.9726C70.9075 14.9726 70.399 14.8357 69.9363 14.562C69.4734 14.2816 69.1051 13.9003 68.8313 13.4179C68.564 12.9356 68.4304 12.3879 68.4304 11.7752C68.4239 11.1624 68.5543 10.6149 68.8215 10.1325C69.0953 9.64363 69.4636 9.26555 69.9265 8.99829C70.3893 8.72451 70.901 8.59087 71.4616 8.59739C72.0222 8.59087 72.5209 8.72124 72.9576 8.98851C73.4009 9.24925 73.7398 9.62407 73.9745 10.113C74.2157 10.5953 74.3363 11.1494 74.3363 11.7752C74.3363 12.401 74.2157 12.9551 73.9745 13.4374C73.7398 13.9199 73.4009 14.2979 72.9576 14.5717Z" fill="#070000"/>
<path d="M34.8654 2.80885H37.9161L40.6451 12.7752L43.5482 2.80885H46.0905L49.239 12.5751L51.8595 2.80885H54.6559L50.5297 17.202H47.8994L44.6978 7.66104L41.7589 17.202H39.0993L34.8654 2.80885Z" fill="#070000"/>
<path fill-rule="evenodd" clip-rule="evenodd" d="M59.1613 17.4561C58.0987 17.4627 57.1405 17.2279 56.2866 16.7522C55.4391 16.2697 54.771 15.6016 54.282 14.7476C53.7997 13.8937 53.5586 12.9192 53.5586 11.824C53.5586 10.7615 53.8063 9.80003 54.3017 8.93958C54.797 8.07912 55.4684 7.4077 56.3159 6.92532C57.1634 6.44295 58.1085 6.20176 59.1514 6.20176C60.3248 6.20176 61.3515 6.4625 62.2315 6.98399C63.1181 7.50547 63.7797 8.24534 64.2165 9.20357C64.6597 10.1553 64.8194 11.2471 64.6956 12.4792H56.3201C56.3435 12.97 56.466 13.4166 56.6875 13.8188C56.9352 14.262 57.2807 14.6075 57.7239 14.8552C58.1672 15.1029 58.6626 15.2267 59.2102 15.2267C59.6273 15.2202 60.0152 15.1485 60.3737 15.0117C60.7323 14.8683 61.0353 14.676 61.283 14.4347C61.5373 14.1936 61.7166 13.9198 61.8209 13.6135H64.6174C64.4479 14.3631 64.1089 15.0312 63.6005 15.6179C63.0919 16.1981 62.4532 16.6511 61.684 16.977C60.9148 17.3029 60.0739 17.4627 59.1613 17.4561ZM56.6972 9.79025C56.5411 10.0627 56.4328 10.356 56.3725 10.6703H61.9245C61.8842 10.2732 61.7616 9.91146 61.5569 9.58491C61.3221 9.20032 61.0028 8.90372 60.5987 8.69512C60.1945 8.48001 59.7382 8.37246 59.2298 8.37246C58.6887 8.37246 58.1966 8.49631 57.7532 8.74401C57.31 8.99172 56.958 9.34047 56.6972 9.79025Z" fill="#070000"/>
<path d="M79.0789 6.42668C79.0789 5.55318 79.2776 4.77747 79.6753 4.09953C80.0729 3.41508 80.6303 2.88381 81.3474 2.50573C82.0709 2.12113 82.9151 1.92231 83.8798 1.90928V4.28531C83.43 4.29183 83.0454 4.38635 82.726 4.56887C82.4131 4.74488 82.1719 5.00236 82.0024 5.34132C81.8465 5.65339 81.7622 6.01517 81.7499 6.42668H83.8211V8.68537H81.7483V17.202H79.0789V8.68537H77.358V6.42668H79.0789Z" fill="#070000"/>
<path fill-rule="evenodd" clip-rule="evenodd" d="M94.3907 17.4365C93.302 17.4365 92.3275 17.1986 91.467 16.7228C90.6131 16.2403 89.9417 15.5755 89.4528 14.728C88.9704 13.8741 88.7292 12.9061 88.7292 11.824C88.7292 10.7354 88.9704 9.76413 89.4528 8.91019C89.9417 8.04973 90.6131 7.38158 91.467 6.90572C92.3275 6.42986 93.302 6.19193 94.3907 6.19193C95.4857 6.19193 96.4636 6.42986 97.324 6.90572C98.191 7.38158 98.8657 8.04647 99.348 8.90042C99.8304 9.75435 100.075 10.7289 100.081 11.824C100.075 12.9061 99.8304 13.8741 99.348 14.728C98.8722 15.5755 98.2008 16.2403 97.3337 16.7228C96.4668 17.1986 95.4857 17.4365 94.3907 17.4365ZM94.3907 14.9823C94.9643 14.9823 95.4727 14.8519 95.916 14.5912C96.3593 14.3239 96.7014 13.9523 96.9427 13.4765C97.1839 12.9941 97.3044 12.4433 97.3044 11.824C97.3044 11.1982 97.1839 10.6441 96.9427 10.1618C96.7014 9.67939 96.3593 9.30783 95.916 9.04708C95.4727 8.77982 94.9643 8.64619 94.3907 8.64619C93.8236 8.64619 93.3184 8.77982 92.875 9.04708C92.4383 9.30783 92.0993 9.67939 91.8582 10.1618C91.617 10.6441 91.4997 11.1982 91.5061 11.824C91.5061 12.4433 91.6268 12.9941 91.8679 13.4765C92.1157 13.9523 92.4546 14.3239 92.8848 14.5912C93.3216 14.8519 93.8236 14.9823 94.3907 14.9823Z" fill="#070000"/>
<path d="M102.966 6.42665H99.9935L103.21 17.2019H105.811L107.927 10.3198L110.211 17.2019H112.773L116 6.42665H113.311L111.481 13.1336L109.458 6.42665H106.858L104.845 13.2813L102.966 6.42665Z" fill="#070000"/>
</svg>
