<svg width="16" height="10" viewBox="0 0 16 10" fill="none" xmlns="http://www.w3.org/2000/svg">
<path fill-rule="evenodd" clip-rule="evenodd" d="M5.14848 9.20467C5.86038 9.45319 6.97179 9.74252 8.41278 9.82812L8.64865 9.828C13.0909 9.828 16 7.07616 16 3.77395C16 1.6511 14.3489 0 12.0295 0C8.92383 0 6.76168 2.12285 5.66094 6.32923C4.28502 5.5823 3.34154 4.2457 2.86979 2.55528C2.63391 1.72973 2.12286 1.21867 1.41523 1.21867C0.550374 1.21867 0 1.88698 0 2.79115C0 5.46438 2.08355 8.01965 5.14988 9.19901L5.14848 9.20467ZM8.88452 6.95822C9.47416 4.2457 10.4177 2.9484 11.6757 2.9484C12.344 2.9484 12.7764 3.34153 12.7764 4.04914C12.7764 5.34644 11.4005 6.8796 8.88452 6.95822Z" fill="#070000"/>
</svg>
