<svg width="48" height="48" viewBox="0 0 48 48" fill="none" xmlns="http://www.w3.org/2000/svg">
<path d="M9.10749 22.5715C8.18749 22.5715 7.38982 22.2327 6.71449 21.555C6.03882 20.877 5.70099 20.0765 5.70099 19.1535V8.92851C5.70099 8.00518 6.03882 7.20451 6.71449 6.52651C7.38982 5.84884 8.18749 5.51001 9.10749 5.51001H38.8925C39.8158 5.51001 40.6163 5.84884 41.294 6.52651C41.972 7.20451 42.311 8.00518 42.311 8.92851V19.1535C42.311 20.0765 41.972 20.877 41.294 21.555C40.6163 22.2327 39.8158 22.5715 38.8925 22.5715H9.10749ZM9.10749 19.1535H38.8925V8.92851H9.10749V19.1535ZM9.10749 42.4785C8.18749 42.4785 7.38982 42.1407 6.71449 41.465C6.03882 40.7893 5.70099 39.9915 5.70099 39.0715V28.835C5.70099 27.9233 6.03882 27.1277 6.71449 26.448C7.38982 25.7683 8.18749 25.4285 9.10749 25.4285H38.8925C39.8158 25.4285 40.6163 25.7683 41.294 26.448C41.972 27.1277 42.311 27.9233 42.311 28.835V39.0715C42.311 39.9915 41.972 40.7893 41.294 41.465C40.6163 42.1407 39.8158 42.4785 38.8925 42.4785H9.10749ZM9.10749 39.0715H38.8925V28.835H9.10749V39.0715Z" fill="#070000"/>
</svg>
