<svg width="48" height="48" viewBox="0 0 48 48" fill="none" xmlns="http://www.w3.org/2000/svg">
<path d="M9.00001 42.4065C8.08034 42.4065 7.28267 42.0686 6.60701 41.393C5.93134 40.7173 5.59351 39.9196 5.59351 39V7.42848C5.59351 6.94748 5.75801 6.54331 6.08701 6.21598C6.41601 5.88864 6.82217 5.72498 7.30551 5.72498C7.78884 5.72498 8.19201 5.88864 8.51501 6.21598C8.83834 6.54331 9.00001 6.94748 9.00001 7.42848V39H40.7035C41.1842 39 41.5902 39.1645 41.9215 39.4935C42.2528 39.8225 42.4185 40.2286 42.4185 40.712C42.4185 41.1953 42.2528 41.5985 41.9215 41.9215C41.5902 42.2448 41.1842 42.4065 40.7035 42.4065H9.00001ZM14.436 35.25C13.9583 35.25 13.558 35.0863 13.235 34.759C12.9117 34.4316 12.75 34.0275 12.75 33.5465V19.9785C12.75 19.4975 12.9127 19.0933 13.238 18.766C13.5633 18.4386 13.9648 18.275 14.4425 18.275H17.1455C17.6232 18.275 18.0235 18.4386 18.3465 18.766C18.6698 19.0933 18.8315 19.4975 18.8315 19.9785V33.5465C18.8315 34.0275 18.6688 34.4316 18.3435 34.759C18.0185 35.0863 17.617 35.25 17.139 35.25H14.436ZM24.4795 35.25C23.9938 35.25 23.5895 35.0863 23.2665 34.759C22.9432 34.4316 22.7815 34.0275 22.7815 33.5465V9.67848C22.7815 9.19748 22.9442 8.79331 23.2695 8.46598C23.5948 8.13864 24.0003 7.97498 24.486 7.97498H27.189C27.6667 7.97498 28.067 8.13864 28.39 8.46598C28.7133 8.79331 28.875 9.19748 28.875 9.67848V33.5465C28.875 34.0275 28.7123 34.4316 28.387 34.759C28.0617 35.0863 27.6602 35.25 27.1825 35.25H24.4795ZM34.323 35.25C33.8373 35.25 33.433 35.0863 33.11 34.759C32.7867 34.4316 32.625 34.0275 32.625 33.5465V28.1785C32.625 27.6975 32.7877 27.2933 33.113 26.966C33.4383 26.6386 33.8438 26.475 34.3295 26.475H37.0205C37.4982 26.475 37.9005 26.6386 38.2275 26.966C38.5548 27.2933 38.7185 27.6975 38.7185 28.1785V33.5465C38.7185 34.0275 38.5538 34.4316 38.2245 34.759C37.8955 35.0863 37.492 35.25 37.014 35.25H34.323Z" fill="#070000"/>
</svg>
