<svg width="48" height="48" viewBox="0 0 48 48" fill="none" xmlns="http://www.w3.org/2000/svg">
<path d="M22.7295 43.5336C22.1908 44.0722 21.5713 44.1956 20.871 43.9036C20.1707 43.6119 19.8205 43.0907 19.8205 42.3401V28.1796H5.66C4.90934 28.1796 4.38817 27.8294 4.0965 27.1291C3.8045 26.4287 3.92784 25.8092 4.4665 25.2706L20.8965 8.84006C21.2065 8.53306 21.5747 8.28639 22.001 8.10006C22.427 7.91372 22.8752 7.82056 23.3455 7.82056H36.773C37.7093 7.82056 38.5112 8.15422 39.1785 8.82156C39.8458 9.48889 40.1795 10.2907 40.1795 11.2271V24.6546C40.1795 25.1249 40.0863 25.5731 39.9 25.9991C39.7137 26.4254 39.467 26.7936 39.16 27.1036L22.7295 43.5336ZM31.6675 18.0481V29.9416L36.8565 24.7401V11.1436H23.26L18.0585 16.3326H29.952C30.432 16.3326 30.8378 16.4986 31.1695 16.8306C31.5015 17.1622 31.6675 17.5681 31.6675 18.0481ZM23.1435 26.5601V38.4536L28.3445 33.2641V19.6556H14.736L9.5465 24.8566H21.44C21.921 24.8566 22.3252 25.0202 22.6525 25.3476C22.9798 25.6749 23.1435 26.0791 23.1435 26.5601Z" fill="#070000"/>
</svg>
