<svg width="48" height="48" viewBox="0 0 48 48" fill="none" xmlns="http://www.w3.org/2000/svg">
<path d="M21.712 31.1705L17.561 27.0195C17.412 26.8775 17.2532 26.7712 17.0845 26.7005C16.9158 26.6299 16.7408 26.5965 16.5595 26.6005C16.3785 26.6045 16.1992 26.644 16.0215 26.719C15.8442 26.794 15.6885 26.9105 15.5545 27.0685C15.2705 27.3599 15.1285 27.7022 15.1285 28.0955C15.1285 28.4889 15.2707 28.8299 15.555 29.1185L20.4945 34.0565C20.6785 34.2385 20.8722 34.371 21.0755 34.454C21.2785 34.537 21.4893 34.5785 21.708 34.5785C21.9267 34.5785 22.135 34.537 22.333 34.454C22.5313 34.371 22.7222 34.2385 22.9055 34.0565L32.26 24.702C32.5343 24.416 32.6715 24.0762 32.6715 23.6825C32.6715 23.2892 32.5313 22.9512 32.251 22.6685C31.9703 22.3859 31.6313 22.2445 31.234 22.2445C30.8367 22.2445 30.4963 22.3862 30.213 22.6695L21.712 31.1705ZM11.1075 44.299C10.1875 44.299 9.38984 43.9612 8.7145 43.2855C8.03884 42.6102 7.701 41.8125 7.701 40.8925V7.10753C7.701 6.18419 8.03884 5.38369 8.7145 4.70602C9.38984 4.02802 10.1875 3.68903 11.1075 3.68903H27.752C28.2237 3.68903 28.6732 3.78436 29.1005 3.97502C29.5278 4.16569 29.8947 4.41419 30.201 4.72052L39.2795 13.799C39.5858 14.1054 39.8343 14.4722 40.025 14.8995C40.2157 15.3269 40.311 15.7764 40.311 16.248V40.8925C40.311 41.8125 39.972 42.6102 39.294 43.2855C38.6163 43.9612 37.8158 44.299 36.8925 44.299H11.1075ZM27.4425 14.7045V7.10753H11.1075V40.8925H36.8925V16.4075H29.1455C28.6648 16.4075 28.2608 16.2439 27.9335 15.9165C27.6062 15.5892 27.4425 15.1852 27.4425 14.7045Z" fill="#070000"/>
</svg>
